 <svg  version="1.0" xmlns="http://www.w3.org/2000/svg"  width="900.000000pt" height="888.000000pt" viewBox="0 0 900.000000 888.000000"  preserveAspectRatio="xMidYMid meet">  <g transform="translate(0.000000,888.000000) scale(0.100000,-0.100000)" fill="#2d4d37" stroke="none"> <path d="M2941 8814 c-99 -18 -240 -88 -319 -159 -129 -117 -202 -256 -242 -456 -13 -68 -14 -236 -2 -270 5 -13 12 -45 16 -71 4 -26 11 -50 17 -53 5 -4 9 -13 9 -21 0 -14 13 -47 57 -144 72 -158 261 -387 483 -586 54 -48 262 -205 343 -258 69 -46 77 -45 172 24 39 27 78 55 89 62 28 20 110 81 116 87 3 4 38 33 79 65 106 85 266 250 355 365 42 55 76 104 76 109 0 6 4 12 9 14 17 6 111 198 143 290 30 89 32 100 32 248 0 172 -15 246 -75 371 -54 112 -170 244 -259 294 -91 51 -168 79 -268 96 -92 16 -217 -1 -317 -42 -73 -30 -95 -34 -110 -21 -21 19 -134 52 -208 62 -93 12 -101 12 -196 -6z m179 -566 c19 -23 26 -38 166 -325 44 -90 84 -161 89 -160 6 2 64 111 130 242 129 258 148 283 204 270 38 -8 87 -55 106 -102 20 -47 19 -160 -1 -209 -32 -80 -56 -124 -106 -196 -55 -79 -293 -322 -326 -332 -23 -8 -60 22 -188 150 -104 104 -167 187 -219 288 -54 104 -67 161 -53 240 15 83 51 136 108 159 26 11 71 -2 90 -25z"/> <path d="M980 8053 c-72 -7 -168 -36 -250 -75 -115 -55 -238 -176 -297 -293 -79 -158 -112 -327 -93 -482 9 -77 39 -198 60 -243 4 -8 15 -33 25 -55 115 -250 368 -537 669 -759 143 -106 221 -156 243 -156 26 0 75 31 253 165 209 157 344 286 472 450 155 198 233 352 272 545 45 216 -23 490 -164 654 -66 78 -192 174 -250 191 -14 4 -30 11 -35 15 -22 18 -151 40 -230 40 -89 0 -179 -19 -260 -55 -54 -23 -55 -23 -132 11 -28 13 -60 24 -71 24 -10 0 -32 4 -48 9 -36 11 -117 18 -164 14z m215 -791 c61 -122 115 -232 120 -245 18 -39 39 -25 77 53 155 319 205 413 222 422 26 14 93 4 118 -19 43 -39 62 -93 62 -178 0 -74 -3 -87 -42 -167 -24 -47 -66 -117 -94 -155 -64 -84 -276 -298 -307 -308 -27 -8 -57 13 -165 121 -137 137 -238 276 -281 389 -37 98 -19 232 40 292 30 29 77 42 110 29 26 -10 45 -41 140 -234z"/> <path d="M4905 8022 c-126 -44 -183 -79 -280 -177 -69 -69 -98 -107 -127 -165 -70 -146 -93 -243 -93 -400 1 -148 16 -211 90 -375 128 -282 416 -592 775 -835 12 -8 42 -30 67 -49 51 -38 81 -42 116 -15 14 11 35 26 47 34 39 26 254 185 270 201 8 8 45 39 81 71 91 79 171 160 249 253 111 131 153 201 262 427 4 10 12 34 17 55 6 21 15 56 20 78 13 49 14 275 1 330 -17 75 -30 126 -39 143 -4 9 -17 35 -27 57 -87 184 -265 330 -462 379 -129 32 -295 16 -410 -39 l-51 -24 -68 28 c-98 41 -150 51 -261 51 -79 -1 -112 -6 -177 -28z m218 -524 c12 -6 27 -18 34 -27 13 -17 90 -170 187 -374 31 -65 61 -115 67 -112 5 4 64 117 131 252 109 220 125 247 154 259 62 26 125 -21 159 -117 39 -108 -4 -235 -138 -414 -63 -85 -247 -271 -290 -294 -24 -13 -29 -12 -59 11 -53 40 -217 208 -262 268 -97 127 -156 255 -156 341 0 54 27 132 57 166 22 24 56 43 91 52 2 1 13 -4 25 -11z"/> <path d="M595 5654 c-177 -37 -319 -122 -409 -244 -77 -105 -110 -189 -126 -325 -11 -89 -11 -3194 -1 -3295 5 -41 15 -97 24 -125 8 -27 27 -90 42 -140 14 -49 30 -99 35 -110 4 -11 16 -42 25 -70 140 -402 460 -793 835 -1020 193 -116 355 -186 530 -228 168 -40 231 -48 500 -68 216 -15 2684 -7 2810 10 257 34 441 75 550 122 124 54 194 88 245 119 28 16 57 33 65 37 77 37 256 179 376 298 115 115 164 172 234 275 8 12 23 33 33 45 9 13 17 28 17 34 0 6 4 11 8 11 5 0 39 62 77 137 84 171 78 157 123 282 l37 104 186 -2 c212 -3 414 20 569 64 114 32 196 59 204 66 6 5 16 9 24 9 26 0 285 131 372 188 218 142 362 277 543 507 83 106 179 272 242 417 7 18 21 49 29 70 9 20 16 42 16 50 0 8 4 18 9 23 10 10 13 20 54 190 47 193 52 239 52 495 0 250 -5 305 -47 480 -21 90 -69 242 -94 300 -8 19 -19 44 -24 55 -34 77 -64 137 -90 180 -16 28 -33 57 -37 65 -39 82 -181 260 -312 391 -137 136 -237 217 -379 303 -99 60 -293 156 -314 156 -8 0 -18 4 -24 8 -21 19 -187 69 -314 95 -183 37 -231 42 -430 42 -201 0 -279 -8 -439 -42 -61 -14 -79 -14 -105 -4 -31 13 -62 22 -133 41 -37 9 -5543 13 -5588 4z m6415 -794 c275 -33 496 -134 719 -329 34 -30 85 -84 114 -120 28 -36 54 -68 57 -71 16 -14 103 -165 129 -223 84 -186 129 -413 118 -591 -26 -405 -209 -749 -522 -982 -97 -71 -100 -73 -200 -122 -173 -85 -314 -121 -516 -129 -80 -3 -158 -3 -172 1 l-27 6 0 1280 0 1279 33 5 c82 14 116 14 267 -4z m-1111 -4 c9 -11 11 -366 9 -1473 -3 -1351 -5 -1465 -21 -1548 -33 -167 -41 -191 -112 -338 -77 -159 -242 -358 -370 -445 -22 -15 -42 -30 -45 -33 -3 -3 -12 -9 -20 -12 -8 -4 -28 -16 -45 -26 -145 -94 -310 -140 -580 -162 -207 -18 -2344 -20 -2610 -3 -281 18 -444 51 -560 116 -10 6 -37 21 -60 32 -196 106 -396 312 -504 521 -86 167 -114 295 -136 613 -13 200 -15 432 -13 1492 2 690 7 1261 11 1268 7 9 523 12 2526 12 2160 0 2520 -2 2530 -14z"/> </g> </svg> 