 <svg  version="1.0" xmlns="http://www.w3.org/2000/svg"  width="900.000000pt" height="909.000000pt" viewBox="0 0 900.000000 909.000000"  preserveAspectRatio="xMidYMid meet">  <g transform="translate(0.000000,909.000000) scale(0.100000,-0.100000)" fill="#2d4d37" stroke="none"> <path d="M3100 9024 c-83 -25 -134 -58 -205 -129 -109 -108 -162 -232 -186 -431 -10 -86 -9 -113 5 -190 37 -203 110 -363 262 -579 47 -66 193 -233 268 -307 105 -102 291 -258 309 -258 9 0 22 6 29 13 7 6 45 38 84 69 95 76 303 282 390 388 39 47 96 123 126 170 60 91 158 279 158 302 0 8 4 18 9 24 15 15 49 154 55 225 13 135 -26 340 -82 444 -48 88 -140 181 -217 220 -179 90 -346 68 -483 -64 -29 -28 -60 -51 -68 -51 -8 0 -29 17 -47 37 -95 109 -271 159 -407 117z"/> <path d="M1205 8060 c-133 -29 -272 -150 -342 -300 -52 -109 -66 -187 -66 -350 0 -137 2 -150 32 -240 18 -52 46 -124 63 -160 29 -62 125 -229 137 -240 3 -3 19 -23 34 -46 15 -22 35 -49 45 -60 9 -11 35 -42 57 -69 101 -126 435 -435 471 -435 10 0 107 70 124 89 3 3 39 36 80 72 308 272 507 549 613 853 31 89 32 95 31 256 -1 181 -10 222 -76 359 -41 85 -151 197 -231 235 -166 78 -352 49 -473 -74 -27 -28 -54 -50 -60 -50 -6 0 -35 23 -65 51 -78 72 -155 107 -254 113 -44 3 -98 1 -120 -4z"/> <path d="M4849 8060 c-130 -23 -268 -138 -337 -282 -54 -112 -73 -191 -79 -330 -5 -98 -2 -131 17 -212 12 -53 26 -99 31 -102 5 -3 9 -13 9 -22 0 -17 87 -196 120 -247 11 -16 23 -37 27 -45 7 -16 45 -72 53 -80 3 -3 17 -21 30 -40 91 -135 439 -476 540 -530 25 -14 36 -7 145 84 83 70 323 308 362 360 18 24 42 54 54 67 23 26 125 178 148 219 170 315 202 509 124 775 -44 152 -158 292 -288 355 -66 31 -76 34 -176 34 -98 0 -109 -3 -172 -33 -37 -18 -90 -55 -117 -82 -27 -27 -54 -49 -59 -49 -5 0 -32 22 -60 50 -99 94 -237 135 -372 110z"/> <path d="M740 5660 c-176 -5 -235 -10 -270 -24 -194 -74 -334 -208 -396 -381 -44 -122 -44 -114 -44 -1810 0 -1729 -1 -1675 52 -1835 13 -41 33 -102 42 -135 42 -140 137 -350 219 -484 232 -381 633 -701 1057 -845 139 -47 400 -96 515 -96 33 -1 92 -5 130 -10 61 -8 2446 -14 2560 -6 22 2 90 6 150 10 183 12 409 48 510 81 22 8 55 16 72 20 18 4 35 11 38 16 4 5 13 9 21 9 16 0 204 90 294 141 141 79 272 181 405 314 114 114 120 120 196 220 66 86 141 212 198 330 51 106 63 136 95 225 15 41 31 85 36 96 8 21 12 22 152 17 149 -6 380 8 464 28 27 6 78 18 114 26 69 16 239 71 305 98 61 25 216 103 250 125 17 11 37 23 45 27 34 16 160 106 230 164 186 156 340 334 457 529 68 113 173 333 173 362 0 8 4 18 9 23 6 6 15 28 20 50 14 53 59 238 72 295 30 132 30 553 -1 700 -77 366 -167 580 -361 860 -86 125 -277 326 -384 407 -27 20 -52 39 -55 42 -3 3 -21 17 -40 30 -169 120 -361 219 -530 274 -131 43 -150 48 -345 89 -40 9 -148 13 -330 13 -267 0 -330 -5 -474 -41 -30 -7 -60 -9 -65 -5 -6 5 -42 19 -81 32 l-70 23 -2605 1 c-1433 1 -2706 -1 -2830 -5z m5168 -792 c13 -13 6 -2636 -8 -2863 -14 -217 -31 -295 -96 -445 -25 -59 -109 -208 -124 -220 -3 -3 -29 -35 -57 -71 -178 -226 -452 -382 -743 -423 -197 -28 -382 -32 -1505 -33 -1516 0 -1612 7 -1878 144 -170 88 -308 205 -426 363 -68 91 -70 94 -120 195 -52 106 -79 188 -104 315 -19 102 -20 148 -24 1554 -2 797 -2 1460 2 1473 l5 23 2533 0 c1896 0 2536 -3 2545 -12z m1161 -3 c409 -73 741 -314 936 -680 162 -306 191 -684 77 -1015 -74 -216 -173 -365 -362 -546 -51 -48 -135 -114 -146 -114 -4 0 -15 -6 -23 -14 -29 -25 -194 -106 -271 -132 -147 -49 -242 -64 -412 -64 l-158 0 0 1283 c0 706 3 1287 7 1290 12 13 267 7 352 -8z"/> </g> </svg> 