<svg xmlns="http://www.w3.org/2000/svg" version="1.0" preserveAspectRatio="xMidYMid meet" viewBox="2.16 3.01 296.88 236.86">  <g transform="translate(0.000000,254.000000) scale(0.050000,-0.050000)" fill="#344c39" stroke="none"> <path d="M2020 4989 c-229 -36 -514 -132 -720 -242 -237 -127 -238 -129 -172 -216 l55 -72 53 38 c1210 854 3141 10 3336 -1459 26 -195 20 -193 610 -196 l508 -2 55 -60 c59 -65 73 -168 34 -241 -48 -90 -107 -99 -636 -99 -565 0 -532 10 -564 -172 -255 -1451 -1866 -2244 -3179 -1566 -1148 593 -1536 2068 -826 3143 l108 165 -66 56 -66 56 -51 -60 c-531 -630 -610 -1795 -174 -2558 1064 -1859 3866 -1525 4385 522 27 109 55 205 61 215 6 11 207 19 464 19 587 0 709 54 740 328 40 359 -115 451 -760 452 l-454 0 -12 55 c-263 1280 -1439 2097 -2729 1894z"/> <path d="M2000 4583 c-1546 -339 -2100 -2236 -974 -3341 1222 -1198 3276 -400 3367 1308 68 1281 -1140 2307 -2393 2033z m774 -196 c639 -127 1164 -614 1367 -1267 74 -237 69 -741 -10 -980 -515 -1568 -2589 -1732 -3329 -264 -198 392 -227 908 -79 1384 41 132 239 442 373 583 456 484 1036 672 1678 544z"/> <path d="M1915 3500 c-438 -78 -728 -581 -539 -935 67 -128 973 -1025 1034 -1025 16 0 85 54 154 120 l126 120 -77 72 -77 72 -54 -52 c-77 -74 -55 -90 -506 363 -359 361 -416 427 -436 505 -107 402 362 705 735 475 66 -41 127 -75 135 -75 8 0 69 34 135 75 428 264 915 -153 689 -590 -61 -117 -55 -154 34 -212 68 -44 148 48 211 244 174 542 -427 1039 -957 792 l-107 -50 -132 53 c-153 61 -235 72 -368 48z"/> <path d="M1884 3087 c-119 -59 -170 -141 -159 -254 11 -113 596 -733 692 -733 28 0 155 110 368 318 l325 318 0 98 c0 286 -284 372 -532 160 -68 -57 -134 -112 -148 -123 -18 -13 -58 10 -133 78 -195 177 -278 204 -413 138z m177 -221 c27 -18 106 -86 175 -150 165 -152 181 -151 383 35 167 154 242 184 257 103 9 -47 -417 -481 -462 -471 -45 10 -494 434 -494 467 0 26 28 45 71 48 11 1 42 -13 70 -32z"/> <path d="M2865 2248 c-133 -112 -141 -140 -63 -220 84 -87 96 -86 195 22 100 107 100 112 18 200 l-65 70 -85 -72z"/> <path d="M780 4390 l-88 -90 58 -60 c68 -71 61 -72 169 26 l84 76 -53 69 c-66 87 -64 87 -170 -21z"/> </g> </svg>